<svg width="174" height="158" viewBox="0 0 174 158" fill="none" xmlns="http://www.w3.org/2000/svg">
<path d="M147.24 23.042L110.252 91.4873C107.632 96.3349 102.566 99.3564 97.0557 99.3564H15C6.71575 99.3564 4.12349e-05 92.6407 0 84.3564C4.12349e-05 76.0722 6.71575 69.3564 15 69.3564H82.2812C85.9614 69.3564 89.3443 67.3347 91.0879 64.0938L120.82 8.82812L142.625 0L147.24 23.042ZM15 72.3564C8.37258 72.3564 3 77.729 3 84.3564C3 90.9839 8.37258 96.3564 15 96.3564C21.6274 96.3564 27 90.9839 27 84.3564C27 77.729 21.6274 72.3564 15 72.3564ZM69 72.3564C62.3726 72.3564 57 77.729 57 84.3564C57 90.9839 62.3726 96.3564 69 96.3564C75.6274 96.3564 81 90.9839 81 84.3564C81 77.729 75.6274 72.3564 69 72.3564Z" fill="#FF1400"/>
<path d="M15 73.3564C21.0751 73.3564 26 78.2813 26 84.3564C26 90.4316 21.0751 95.3564 15 95.3564C8.92487 95.3564 4 90.4316 4 84.3564C4 78.2813 8.92487 73.3564 15 73.3564Z" fill="white" stroke="black" stroke-width="2"/>
<circle cx="69" cy="84.3564" r="11" fill="white" stroke="black" stroke-width="2"/>
<circle cx="15" cy="84.3564" r="8" fill="#FF1400"/>
<path d="M160.24 52.042L127.505 112.619C122.266 122.314 112.132 128.356 101.111 128.356H28C19.7158 128.356 13 121.641 13 113.356C13 105.072 19.7158 98.3564 28 98.3564H90.501C97.1251 98.3564 103.214 94.7182 106.353 88.8848L133.82 37.8281L155.625 29L160.24 52.042ZM28 101.356C21.3726 101.356 16 106.729 16 113.356C16 119.984 21.3726 125.356 28 125.356C34.6274 125.356 40 119.984 40 113.356C40 106.729 34.6274 101.356 28 101.356ZM82 101.356C75.3726 101.356 70 106.729 70 113.356C70 119.984 75.3726 125.356 82 125.356C88.6274 125.356 94 119.984 94 113.356C94 106.729 88.6274 101.356 82 101.356Z" fill="#5291CE"/>
<path d="M28 102.356C34.0751 102.356 39 107.281 39 113.356C39 119.432 34.0751 124.356 28 124.356C21.9249 124.356 17 119.432 17 113.356C17 107.281 21.9249 102.356 28 102.356Z" fill="white" stroke="black" stroke-width="2"/>
<path d="M82 102.356C88.0751 102.356 93 107.281 93 113.356C93 119.432 88.0751 124.356 82 124.356C75.9249 124.356 71 119.432 71 113.356C71 107.281 75.9249 102.356 82 102.356Z" fill="white" stroke="black" stroke-width="2"/>
<circle cx="28" cy="113.356" r="8" fill="#5291CE"/>
<path d="M173.24 81.042L143.339 136.373C136.353 149.3 122.842 157.356 108.148 157.356H41C32.7158 157.356 26 150.641 26 142.356C26 134.072 32.7158 127.356 41 127.356H97.5254C107.83 127.356 117.302 121.697 122.184 112.622L146.82 66.8281L168.625 58L173.24 81.042ZM41 130.356C34.3726 130.356 29 135.729 29 142.356C29 148.984 34.3726 154.356 41 154.356C47.6274 154.356 53 148.984 53 142.356C53 135.729 47.6274 130.356 41 130.356ZM95 130.356C88.3726 130.356 83 135.729 83 142.356C83 148.984 88.3726 154.356 95 154.356C101.627 154.356 107 148.984 107 142.356C107 135.729 101.627 130.356 95 130.356Z" fill="#00814F"/>
<path d="M41 131.356C47.0751 131.356 52 136.281 52 142.356C52 148.432 47.0751 153.356 41 153.356C34.9249 153.356 30 148.432 30 142.356C30 136.281 34.9249 131.356 41 131.356Z" fill="white" stroke="black" stroke-width="2"/>
<path d="M95 131.356C101.075 131.356 106 136.281 106 142.356C106 148.432 101.075 153.356 95 153.356C88.9249 153.356 84 148.432 84 142.356C84 136.281 88.9249 131.356 95 131.356Z" fill="white" stroke="black" stroke-width="2"/>
<circle cx="41" cy="142.356" r="8" fill="#00814F"/>
</svg>
